<?xml version="1.0" encoding="UTF-8"?>
<svg id="Layer_1" data-name="Layer 1" xmlns="http://www.w3.org/2000/svg" viewBox="0 0 800 800">
  <path d="M400,800c220.91,0,400-179.09,400-400S620.91,0,400,0,0,179.09,0,400s179.09,400,400,400ZM400,50c193.3,0,350,156.7,350,350s-156.7,350-350,350S50,593.3,50,400,206.7,50,400,50Z" style="fill: #3a24ff;"/>
  <circle cx="400" cy="400" r="370" style="fill: #b2d1ff;"/>
  <path d="M398.26,135.94c21.61,0,19.56,17.51,19.56,39.12l1.34,42.27,226.77,63.88-9.46,37.96-24.66-6.15,109.2,214.11c0,37.81-62.32,68.46-127.14,68.46s-127.14-30.65-127.14-68.46l99.51-225.47-145.5-36.28,11.47,341.21c75.54,5.53,132.31,29.15,132.31,57.46H232c0-28.3,56.77-51.92,132.31-57.46l13.4-351.94-164.47-41.01,96.99,225.47c0,37.81-62.32,68.46-127.14,68.46s-127.14-30.65-127.14-68.46l111.72-236.83-24.66-6.15,9.46-37.96,226.19,53.94.03-37.07c0-21.61-2.05-39.12,19.56-39.12ZM675.32,527.14l-71.68-177.42v177.42h71.68ZM512.4,527.14h71.68v-177.42l-71.68,177.42ZM264.56,439.12l-71.68-177.42v177.42h71.68ZM101.64,439.12h71.68v-177.42l-71.68,177.42Z"/>
</svg>
