<?xml version="1.0" encoding="UTF-8"?>
<svg id="Layer_1" data-name="Layer 1" xmlns="http://www.w3.org/2000/svg" viewBox="0 0 800 800">
  <path d="M400,800c220.91,0,400-179.09,400-400S620.91,0,400,0,0,179.09,0,400s179.09,400,400,400ZM400,50c193.3,0,350,156.7,350,350s-156.7,350-350,350S50,593.3,50,400,206.7,50,400,50Z" style="fill: #6a62ff;"/>
  <circle cx="400" cy="400" r="370" style="fill: #5000f4;"/>
  <g>
    <path d="M344.3,368.44c-2.49,4.99-6.35,9.25-11.23,12.24-7.71,4.72-17.05,5.73-25.6,2.78l-6.23-2.14c2.07,2.25,4.03,4.56,5.86,7.01,10.67,14.21,17.12,31.38,18.33,49.27.8,11.94-.71,24.18-4.88,36.26-6.28,18.11-17.5,32.87-31.72,43.57-14.21,10.67-31.36,17.11-49.27,18.33-1.33.07-2.65.12-3.98.16,3.34,8.83,3.77,18.8.44,28.41-1.75,5.04-4.39,9.53-7.68,13.37,13.52.51,26.85-1.01,39.61-4.42,24.93-6.67,47.64-20.43,65.13-39.87,11.66-12.93,21-28.43,27.01-45.87,9.06-26.16,9.53-53.41,2.85-78.31-3.89-14.56-10.21-28.32-18.64-40.78h0Z" style="fill: #fff6ec;"/>
    <path d="M178,370.06c14.21-10.67,31.38-17.14,49.27-18.33,11.94-.81,24.18.69,36.26,4.88l47.53,16.43c5.41,1.87,11.37,1.22,16.26-1.77s8.17-8,8.97-13.67l7.24-39.34c1.27-9.08-4.05-17.78-12.7-20.77l-41.84-14.47-41.85-14.47c-8.65-2.99-18.22.57-22.82,8.49l-18.59,35.43-.09.12c-2.26.48-4.51,1.01-6.74,1.59-24.94,6.69-47.66,20.43-65.15,39.85-11.66,12.95-20.98,28.43-27.01,45.87-9.06,26.16-9.52,53.42-2.85,78.33,6.69,24.94,20.43,47.66,39.87,65.15,7.08,6.37,14.93,12.01,23.42,16.82,2.92,8.85,9.73,16.27,19.19,19.56,16.11,5.57,33.68-2.97,39.24-19.09,5.57-16.1-2.97-33.66-19.07-39.24-7.36-2.53-15.02-2.1-21.69.62-9.89-6.12-18.33-13.92-25.1-22.94-10.67-14.21-17.12-31.38-18.33-49.27-.8-11.94.71-24.18,4.88-36.26,6.28-18.11,17.5-32.89,31.7-43.55v.03h0ZM263.88,319.86c1.8-5.25,6.58-8.61,11.8-8.88l4.65-13.41,9.36,3.24-4.63,13.41c3.93,3.43,5.61,9.04,3.82,14.28-2.41,6.9-9.92,10.58-16.82,8.19-6.9-2.4-10.56-9.92-8.17-16.82h0ZM183.96,546.31c2.39-6.9,9.91-10.56,16.82-8.17,6.9,2.39,10.56,9.92,8.17,16.82s-9.91,10.56-16.81,8.17c-6.92-2.39-10.58-9.92-8.19-16.82h.01Z" style="fill: #fff6ec;"/>
    <path d="M515.18,578.8c-16.96-5.78-31.88-16.47-42.83-30.46-10.97-13.99-17.97-31.17-19.35-50.27-.9-12.75.81-24.98,4.69-36.3,5.78-16.96,16.47-31.88,30.46-42.84,2.39-1.87,4.86-3.61,7.45-5.24l-6.56.46c-9.02.64-17.78-2.76-24-9.32-3.94-4.16-6.56-9.25-7.68-14.72-11.37,9.82-21.03,21.49-28.57,34.53-12.9,22.34-19.49,48.77-17.53,76.38,1.29,18.42,6.3,35.79,14.21,51.32,11.87,23.3,30.25,42.46,52.59,55.35,11.43,6.6,23.92,11.55,37.1,14.54-2.16-4.56-3.57-9.57-3.94-14.91-.71-10.12,2.26-19.65,7.8-27.33-1.29-.37-2.55-.76-3.82-1.18h-.02,0Z" style="fill: #fff6ec;"/>
    <path d="M678.65,482.04c-1.31-18.42-6.3-35.79-14.21-51.3-11.87-23.3-30.25-42.47-52.59-55.37-2-1.17-4.05-2.25-6.1-3.29l-.04-.16-8.81-39.04c-2.39-8.83-10.7-14.74-19.85-14.08l-44.15,3.13-44.15,3.13c-9.15.65-16.54,7.7-17.65,16.77l-3.2,39.87c-.69,5.7,1.19,11.39,5.13,15.53s9.52,6.32,15.23,5.91l50.17-3.56c12.75-.9,24.98.81,36.3,4.67,16.96,5.8,31.88,16.49,42.84,30.46,10.95,14.01,17.95,31.17,19.33,50.27.88,12.75-.81,25-4.69,36.3-5.78,16.96-16.47,31.88-30.44,42.84-8.9,6.95-19.05,12.31-30.2,15.67-5.75-4.39-13.02-6.77-20.79-6.23-17,1.2-29.81,15.96-28.6,32.96,1.22,17,15.96,29.79,32.97,28.59,9.99-.71,18.5-6.12,23.62-13.9,9.45-2.46,18.49-5.87,26.98-10.21,23.3-11.85,42.46-30.23,55.37-52.59,12.9-22.33,19.51-48.77,17.53-76.39v.02h0ZM535.38,378.11c-7.31.53-13.62-4.95-14.13-12.24-.39-5.54,2.67-10.51,7.38-12.81l-1.01-14.15,9.89-.71.99,14.15c4.99,1.61,8.72,6.1,9.13,11.64.51,7.29-4.97,13.6-12.24,14.12h-.01ZM553.91,617.54c-7.29.53-13.6-4.95-14.13-12.26-.51-7.27,4.97-13.59,12.26-14.12,7.29-.51,13.6,4.97,14.13,12.26.51,7.27-4.97,13.6-12.26,14.12Z" style="fill: #fff6ec;"/>
    <path d="M418.6,171.11c2.42-3.8,3.94-8.14,4.46-12.63l15.92,3.71c-.94,2.92-1.47,5.98-1.47,9.04,0,6.05,1.89,12.21,5.75,17.42l13.75,18.65c2.85,3.89,6.54,6.88,10.61,8.9s8.53,3.04,13.02,3.04c2.97,0,5.94-.46,8.85-1.36l6.67,10.97c-2.41,1.79-4.55,3.87-6.32,6.23-3.94,5.25-6.21,11.73-6.21,18.52,0,2.71.37,5.47,1.11,8.17l6.56,23.93c1.87,6.81,5.94,12.52,11.2,16.45,5.25,3.94,11.73,6.21,18.5,6.21,2.71,0,5.47-.37,8.17-1.11h0c6.81-1.86,12.52-5.93,16.47-11.18s6.19-11.73,6.19-18.5c0-2.72-.37-5.47-1.11-8.19l-6.56-23.93c-1.86-6.79-5.93-12.51-11.18-16.45-5.25-3.96-11.73-6.19-18.52-6.19-.44,0-.88.02-1.33.04l-9.22-15.14c1.17-1.52,2.21-3.11,3.04-4.79,2-4.07,3.03-8.53,3.03-13.04.02-6.03-1.87-12.19-5.71-17.41l-13.76-18.65c-2.87-3.89-6.54-6.9-10.61-8.9-4.07-2.02-8.53-3.04-13.04-3.04-5.59,0-11.27,1.63-16.24,4.94l-32.05-7.48c-2.32-3.59-5.32-6.58-8.79-8.79-4.71-3.03-10.22-4.67-15.89-4.67-3.93,0-7.94.8-11.73,2.44l-21.25,9.29v-.02c-5.48,2.41-9.94,6.32-12.95,11.04-3.03,4.71-4.67,10.21-4.67,15.89,0,2.74.41,5.52,1.2,8.23l-15.3,14.58c-3.15-1.03-6.39-1.54-9.57-1.54-5.93.02-11.66,1.72-16.59,4.85s-9.04,7.75-11.57,13.46l-10.08,22.68c-1.8,4.05-2.67,8.31-2.67,12.49.02,5.93,1.72,11.68,4.85,16.59,3.13,4.94,7.75,9.06,13.46,11.59,4.05,1.8,8.31,2.65,12.51,2.65,5.91,0,11.66-1.7,16.58-4.83,4.94-3.13,9.06-7.75,11.59-13.46l10.08-22.68c1.79-4.05,2.65-8.33,2.65-12.51,0-5.91-1.7-11.66-4.83-16.59-.53-.81-1.1-1.59-1.7-2.35l10.6-10.1c.74.58,1.49,1.13,2.28,1.63,4.71,3.04,10.21,4.67,15.89,4.67,3.93,0,7.93-.78,11.73-2.44l21.25-9.27c5.48-2.39,9.94-6.31,12.96-11.02v-.04h0ZM503.93,245.67c1.7-2.26,4.07-3.96,7.02-4.78,1.19-.34,2.37-.48,3.5-.48,2.88,0,5.66.96,7.93,2.65,2.26,1.72,3.96,4.09,4.79,7.06l6.56,23.92c.32,1.2.46,2.35.46,3.52,0,2.87-.96,5.66-2.65,7.91-1.7,2.26-4.09,3.96-7.04,4.78-1.19.32-2.34.48-3.5.48-2.87,0-5.66-.96-7.91-2.65-2.28-1.72-3.98-4.09-4.79-7.04l-6.56-23.92-8.51,2.32,8.51-2.34c-.32-1.19-.48-2.35-.48-3.5,0-2.88.96-5.66,2.67-7.92h0ZM457.43,178.18c-1.56-2.12-2.28-4.51-2.28-6.95,0-1.8.41-3.59,1.22-5.22.23-.46.48-.9.78-1.33,1.77-.74,3.27-2.09,4.23-3.8,1.73-.92,3.61-1.38,5.48-1.38s3.61.41,5.24,1.22c1.61.8,3.06,1.96,4.23,3.54l13.75,18.66c1.57,2.12,2.28,4.51,2.28,6.93.02,1.82-.41,3.61-1.2,5.22-.8,1.63-1.96,3.08-3.56,4.25-2.12,1.56-4.51,2.28-6.95,2.3-1.8,0-3.59-.42-5.22-1.22-1.63-.81-3.06-1.98-4.23-3.56l-13.76-18.66-7.08,5.24,7.08-5.24h0ZM331.65,221.93l-10.08,22.68c-1.1,2.48-2.83,4.41-4.94,5.75s-4.6,2.09-7.11,2.09c-1.79,0-3.59-.35-5.34-1.15-2.49-1.1-4.41-2.81-5.77-4.94-1.34-2.12-2.09-4.6-2.07-7.13,0-1.77.35-3.57,1.13-5.32l10.08-22.68c1.1-2.49,2.83-4.41,4.95-5.77,2.1-1.34,4.6-2.09,7.11-2.07,1.79,0,3.57.35,5.34,1.13,2.48,1.11,4.41,2.83,5.77,4.95,1.33,2.1,2.07,4.6,2.07,7.11,0,1.79-.35,3.59-1.15,5.34h0ZM403.76,161.57c-1.22,1.89-2.94,3.43-5.17,4.41l-21.25,9.27c-1.56.67-3.11.97-4.69.97-2.25,0-4.48-.65-6.37-1.87s-3.41-2.94-4.39-5.17c-.69-1.56-.99-3.13-.99-4.69,0-2.25.65-4.48,1.87-6.37,1.22-1.87,2.94-3.41,5.17-4.39h.02l21.23-9.27c1.56-.67,3.13-.99,4.69-.99,2.25,0,4.48.67,6.37,1.87,1.87,1.22,3.41,2.94,4.39,5.18.69,1.56.99,3.11.99,4.67,0,2.27-.67,4.48-1.87,6.37h0Z" style="fill: #fff6ec;"/>
  </g>
</svg>