<?xml version="1.0" encoding="UTF-8"?>
<svg id="Layer_1" data-name="Layer 1" xmlns="http://www.w3.org/2000/svg" viewBox="0 0 800 800">
  <circle cx="400" cy="400" r="350" style="fill: #f6000b; opacity: .85;"/>
  <path d="M400,800c220.91,0,400-179.09,400-400S620.91,0,400,0,0,179.09,0,400s179.09,400,400,400ZM400,50c193.3,0,350,156.7,350,350s-156.7,350-350,350S50,593.3,50,400,206.7,50,400,50Z" style="opacity: .85;"/>
  <path d="M714.43,302.69l-22.5,3.31c-1.72.26-3.18,1.4-3.85,3.01l-26.49,64.56c-1.69,4.13-5.71,6.82-10.16,6.82h-173.58c-.54-10.25-8.68-18.7-19.17-19.39l-76.95-5.06-.19-2.64c-.44-6.09-5.75-10.68-11.84-10.24l-45.73,3.32v-17.81l55.91,7.44c.99.13,1.94.53,2.74,1.14l13.47,10.44c.94.73,2.09,1.15,3.28,1.19l131.09,4.58c3.33.11,6.04-2.64,5.89-5.96l-.67-14.25c-.14-2.92-2.47-5.26-5.39-5.42l-206.32-10.66v-19.42c0-6.14-4.98-11.12-11.12-11.12s-11.12,4.98-11.12,11.12v19.84l-175.91-90.57c-2.6-1.34-5.8-.49-7.39,1.97l-7.75,11.98c-1.81,2.79-.85,6.54,2.09,8.12l115.61,61.98c1.05.56,2.26.79,3.44.63l16.9-2.25c.99-.13,2.01,0,2.94.39l50.07,20.86v17.4l-48.71,3.53c-6.09.44-10.68,5.74-10.24,11.84l.86,11.98-25.69,2.34c-5.67.52-10.99,2.91-15.13,6.82l-36.77,34.61c-2.83,2.66-6.06,4.84-9.58,6.47l-32.18,14.91c-9.89,4.58-17.18,13.38-19.84,23.95l-.78,3.09c-2.32,9.16,3.88,18.28,13.25,19.51,1.33.18,2.64.52,3.87,1.02s2.42,1.17,3.49,1.97l32.82,24.44c5.49,4.09,12.18,6.23,19.01,6.11l40.11-.71-4.75,34.65-8.39.22c-2.96.05-5.78-1.28-7.58-3.62l-16.12-21.08c-3.18-4.17-9.14-4.96-13.29-1.77-4.17,3.18-4.95,9.14-1.77,13.29l16.12,21.08c5.33,6.97,13.66,11.07,22.41,11.07h.72l220.21-5.65c5.24-.14,9.38-4.49,9.24-9.72-.13-5.15-4.36-9.24-9.48-9.24h-.25l-42.87,1.1,7.54-33.35,27.43-.48c10.94-.2,20.97-6.16,26.36-15.69l26.38-46.61c3.6-6.35,9.98-10.62,17.22-11.51l204.5-25.13c4.68-.58,8.47-4.06,9.42-8.69l20.69-100.14c.69-3.35-2.16-6.37-5.55-5.88h.03v-.04h-.01ZM274.55,430.05l17.9-40.15.33-.74c.8-1.78,2.58-2.94,4.53-2.94h40.31c.57,0,1.11.1,1.62.28,1.94.67,3.33,2.52,3.33,4.68v40.9c0,2.74-2.22,4.95-4.95,4.95h-58.54c-3.59,0-5.99-3.69-4.53-6.97h0ZM212.4,478.83c-1.44,2.33-3.98,3.75-6.72,3.75h-17.95c-4.75,0-8.43-4.16-7.84-8.88l4.3-34.38c.18-1.48.8-2.89,1.74-4.04l28.43-34.56c1.5-1.82,3.73-2.88,6.1-2.88h43.08c5.67,0,9.5,5.81,7.25,11.02l-14.93,34.69c-1.12,2.63-3.59,4.43-6.42,4.74l-15.57,1.64c-2.44.25-4.61,1.62-5.89,3.7l-15.57,25.2h-.01ZM366.23,550.56l-140.88,3.62,7.81-34.6,137.65-2.44-4.58,33.41h0ZM392.42,422.26l-11.98,13.85c-.49.58-1.22.91-1.97.91h-18.2c-1.41,0-2.57-1.11-2.61-2.52l-1.3-39.1-.22-6.47c-.05-1.48,1.13-2.7,2.6-2.7h28.65c1.35,0,2.47,1.03,2.6,2.37l.88,9.16,2.16,22.57c.07.71-.16,1.42-.63,1.95h0l.02-.02h0Z" style="fill: #8af8ff; opacity: .85;"/>
</svg>