<?xml version="1.0" encoding="UTF-8"?>
<svg id="Layer_1" data-name="Layer 1" xmlns="http://www.w3.org/2000/svg" viewBox="0 0 800 800">
  <circle cx="399" cy="399.5" r="400" style="fill: #6e24ff;"/>
  <circle cx="400" cy="399.5" r="378.51" style="fill: #c4ffac;"/>
  <path d="M763.46,282.4l-26.03,3.83c-1.99.3-3.68,1.62-4.45,3.48l-30.65,74.7c-1.95,4.78-6.61,7.89-11.76,7.89h-200.84c-.62-11.86-10.04-21.64-22.18-22.44l-89.04-5.85-.22-3.06c-.51-7.05-6.65-12.36-13.7-11.85l-52.91,3.84v-20.61l64.69,8.61c1.15.15,2.25.61,3.17,1.32l15.59,12.08c1.09.85,2.42,1.33,3.8,1.38l151.68,5.3c3.85.13,6.99-3.05,6.81-6.9l-.78-16.49c-.16-3.38-2.86-6.09-6.24-6.27l-238.72-12.33v-22.47c0-7.11-5.76-12.87-12.87-12.87s-12.87,5.76-12.87,12.87v22.95l-203.53-104.79c-3.01-1.55-6.71-.57-8.55,2.28l-8.97,13.86c-2.09,3.23-.98,7.57,2.42,9.39l133.77,71.71c1.22.65,2.61.91,3.98.73l19.55-2.6c1.15-.15,2.33,0,3.4.45l57.93,24.14v20.13l-56.36,4.09c-7.05.51-12.36,6.64-11.85,13.7l1,13.86-29.72,2.71c-6.56.6-12.72,3.37-17.51,7.89l-42.55,40.04c-3.27,3.08-7.01,5.6-11.08,7.49l-37.23,17.25c-11.44,5.3-19.88,15.48-22.96,27.71l-.9,3.57c-2.68,10.6,4.49,21.15,15.33,22.57,1.54.21,3.05.6,4.48,1.18s2.8,1.35,4.04,2.28l37.97,28.28c6.35,4.73,14.09,7.21,22,7.07l46.41-.82-5.5,40.09-9.71.25c-3.42.06-6.69-1.48-8.77-4.19l-18.65-24.39c-3.68-4.82-10.57-5.74-15.38-2.05-4.82,3.68-5.73,10.57-2.05,15.38l18.65,24.39c6.17,8.06,15.81,12.81,25.93,12.81.28,0,.55,0,.83-.01l254.79-6.54c6.06-.16,10.85-5.19,10.69-11.25-.15-5.96-5.04-10.69-10.97-10.69h-.29l-49.6,1.27,8.72-38.59,31.74-.56c12.66-.23,24.26-7.13,30.5-18.15l30.52-53.93c4.16-7.35,11.55-12.29,19.93-13.32l236.62-29.08c5.41-.67,9.8-4.7,10.9-10.05l23.94-115.87c.8-3.88-2.5-7.37-6.42-6.8h.03ZM254.49,429.76l20.71-46.46.38-.86c.92-2.06,2.98-3.4,5.24-3.4h46.64c.66,0,1.29.11,1.88.32,2.24.78,3.85,2.91,3.85,5.41v47.32c0,3.17-2.57,5.73-5.73,5.73h-67.73c-4.15,0-6.93-4.27-5.24-8.06h0ZM182.59,486.2c-1.67,2.7-4.61,4.34-7.77,4.34h-20.77c-5.5,0-9.75-4.81-9.07-10.27l4.98-39.78c.21-1.71.92-3.34,2.01-4.67l32.89-39.99c1.74-2.11,4.32-3.33,7.06-3.33h49.85c6.56,0,10.99,6.72,8.39,12.75l-17.28,40.14c-1.3,3.04-4.15,5.13-7.43,5.48l-18.02,1.9c-2.82.29-5.33,1.88-6.82,4.28l-18.01,29.16h0ZM360.57,569.19l-163,4.19,9.04-40.03,159.27-2.82-5.3,38.66h-.01ZM390.88,420.75l-13.86,16.02c-.57.67-1.41,1.05-2.28,1.05h-21.06c-1.63,0-2.97-1.29-3.02-2.92l-1.5-45.24-.25-7.49c-.06-1.71,1.31-3.12,3.01-3.12h33.15c1.56,0,2.86,1.19,3.01,2.74l1.02,10.6,2.5,26.11c.08.82-.18,1.64-.73,2.26h0Z" style="fill: #231f20;"/>
</svg>
