<?xml version="1.0" encoding="UTF-8"?>
<svg id="Layer_1" xmlns="http://www.w3.org/2000/svg" version="1.1" viewBox="0 0 800 800">
  <!-- Generator: Adobe Illustrator 30.2.1, SVG Export Plug-In . SVG Version: 2.1.1 Build 1)  -->
  <defs>
    <style>
      .st0 {
        fill: #f6000b;
      }
    </style>
  </defs>
  <circle class="st0" cx="400" cy="400" r="350"/>
  <path d="M400,800c220.91,0,400-179.09,400-400S620.91,0,400,0,0,179.09,0,400s179.09,400,400,400ZM400,50c193.3,0,350,156.7,350,350s-156.7,350-350,350S50,593.3,50,400,206.7,50,400,50Z"/>
  <g>
    <path d="M684.86,296.73l-243.24-15.01v-42.56c0-12.4-9.94-22.45-22.2-22.45h-38.86c-12.28,0-22.2,10.06-22.2,22.45v42.17l-243.24,15.4c-19.6,1.37-35.09,17.29-36.14,37.1-1.03,19.8,12.72,37.3,32.06,40.75l239.17,43.51c9.23,1.67,16.09,9.54,16.5,19l4.77,106.94c.23,5.09-2.98,9.69-7.78,11.21l-67.55,21.18c-11.02,3.45-18.15,14.22-17.09,25.81,1.06,11.6,9.99,20.87,21.46,22.26l88.05,7.45v16.79c0,6.37,5.12,11.52,11.42,11.52s11.45-5.15,11.45-11.52v-16.79l88.05-7.45c11.45-1.39,20.4-10.65,21.46-22.26s-6.07-22.37-17.09-25.81l-67.53-21.18c-4.82-1.5-8.06-6.11-7.8-11.21l4.74-106.94c.43-9.46,7.29-17.34,16.5-19l239.19-43.51c19.35-3.45,33.08-20.95,32.06-40.75-1.03-19.81-16.56-35.73-36.13-37.1h-.03Z"/>
    <path d="M414.08,196.97c0-7.86-6.31-14.23-14.11-14.23s-14.11,6.37-14.11,14.23v8.32h28.22v-8.32h0Z"/>
    <path d="M318.91,202.32h55.24c2.26,0,4.09-1.86,4.09-4.16s-1.84-4.16-4.09-4.16h-55.24c-2.28,0-4.12,1.88-4.12,4.16s1.84,4.16,4.12,4.16Z"/>
    <path d="M425.82,202.32h55.24c2.28,0,4.12-1.86,4.12-4.16s-1.84-4.16-4.12-4.16h-55.24c-2.26,0-4.09,1.88-4.09,4.16s1.84,4.16,4.09,4.16Z"/>
  </g>
</svg>