<?xml version="1.0" encoding="UTF-8"?>
<svg id="Layer_1" data-name="Layer 1" xmlns="http://www.w3.org/2000/svg" viewBox="0 0 800 800">
  <path d="M400,800c220.91,0,400-179.09,400-400S620.91,0,400,0,0,179.09,0,400s179.09,400,400,400ZM400,50c193.3,0,350,156.7,350,350s-156.7,350-350,350S50,593.3,50,400,206.7,50,400,50Z" style="fill: #3a24ff;"/>
  <circle cx="400" cy="400" r="370" style="fill: #b2d1ff;"/>
  <path d="M671.3,416.99c28.8,201.17-142.6,216.35-167.4,227.87-55.82,19.47-100.65,56.2-100.65,56.2,0,0-36.47-31.87-91.15-56.2-25.82-10.65-214.2-27.35-185.35-227.87,6.08-28.87,39.45-53.17,39.45-101.8s-41-104.82-41-104.82l117-112.43s41.02,28.93,77.5,28.93,83.55-28.93,83.55-28.93c0,0,47.1,28.93,82.03,28.93s77.5-28.93,77.5-28.93l109.18,110.92s-41,57.82-41,106.35,33.02,71.43,40.35,101.77h0ZM401.6,197.91c-102.62,0-185.83,90.93-185.83,193.55s83.17,178.07,185.83,178.07,185.83-75.45,185.83-178.08c-.02-102.63-83.23-193.55-185.83-193.55h0ZM402.63,558.69c-95.78,0-173.45-77.62-173.45-173.43s77.65-173.43,173.45-173.43,173.43,77.62,173.43,173.43c-.02,95.8-77.65,173.43-173.43,173.43ZM507.2,306.99c-9.9,0-17.88,7.95-18.05,17.8h-49.63l-26.05-45.13c4.97-3.22,8.48-8.58,8.48-14.95,0-10-8.1-18.13-18.13-18.13s-18.13,8.1-18.13,18.13c0,6.82,3.95,12.6,9.58,15.67l-25.62,44.37h-51.15c-.17-9.85-8.15-17.8-18.05-17.8s-18.13,8.1-18.13,18.1,8.1,18.13,18.13,18.13c3.22,0,6.1-1.08,8.72-2.55l25.65,44.42-25.97,44.97c-2.55-1.38-5.33-2.35-8.4-2.35-10,0-18.13,8.1-18.13,18.13s8.1,18.07,18.13,18.07,18.1-8.1,18.1-18.07c0-.2-.08-.3-.08-.5h51.17l25.92,44.97c-5.77,2.97-9.88,8.87-9.88,15.88,0,10,8.1,18.13,18.12,18.13s18.13-8.1,18.13-18.13c0-6.55-3.65-11.98-8.8-15.12l26.38-45.7h48.9c0,.2-.1.3-.1.5,0,9.95,8.13,18.07,18.13,18.07s18.13-8.1,18.13-18.07-8.1-18.13-18.13-18.13c-2.37,0-4.65.5-6.72,1.32l-25.4-43.95,25.23-43.7c2.35,1.1,4.87,1.8,7.65,1.8,10,0,18.13-8.1,18.13-18.13s-8.1-18.07-18.13-18.07h0Z"/>
</svg>