<?xml version="1.0" encoding="UTF-8"?>
<svg id="Layer_1" data-name="Layer 1" xmlns="http://www.w3.org/2000/svg" viewBox="0 0 800 800">
  <circle cx="400" cy="400" r="350" style="fill: #f6000b; isolation: isolate; opacity: .85;"/>
  <path d="M400,800c220.91,0,400-179.09,400-400S620.91,0,400,0,0,179.09,0,400s179.09,400,400,400ZM400,50c193.3,0,350,156.7,350,350s-156.7,350-350,350S50,593.3,50,400,206.7,50,400,50Z" style="isolation: isolate; opacity: .85;"/>
  <g style="opacity: .85;">
    <path d="M718.9,364.67c-1.64-3.91-5.47-6.46-9.72-6.46h-70.14l-39.33-43.06c-2-2.19-4.82-3.43-7.78-3.43h-44.82l-17.86-23.82.16-.04c-1.17-1.42-2.2-2.93-3.2-4.46-.15-.12-.29-.24-.42-.38-.26-.24-.47-.5-.64-.79-2.9-2.75-5.39-5.99-7.95-9.04-.63-.43-1.19-.96-1.64-1.57-.36-.2-.7-.42-1.01-.7-.06-.05-.1-.11-.15-.17-.52-.19-.98-.49-1.37-.91-.12-.11-.22-.22-.32-.34-14.02-11.64-31.86-18.31-50.35-18.31h-97.39c-10.76,0-21.04,5.14-27.49,13.75l-35.1,46.79h-116.1c-2.54,0-4.99.92-6.91,2.58l-50.6,43.91h-.37v.32l-44.49,38.61c-2.42,2.1-3.75,5.18-3.62,8.38s1.7,6.16,4.28,8.06l50.14,36.96c-2.56,7.99-3.96,16.5-3.96,25.33,0,45.91,37.35,83.25,83.25,83.25,40.75,0,74.73-29.44,81.86-68.16,7.12,38.72,41.11,68.16,81.86,68.16s74.73-29.44,81.86-68.16c7.12,38.72,41.11,68.16,81.86,68.16,45.91,0,83.25-37.35,83.25-83.25,0-1.93-.09-3.84-.22-5.74l92.23-94.01c2.97-3.03,3.84-7.55,2.19-11.46h.01ZM354.34,277.58c2.5-3.33,6.47-5.32,10.64-5.32h97.39c18.05,0,35.28,8.62,46.11,23.06l12.3,16.4h-192.05l25.61-34.14h0ZM190.21,332.79h397.07l23.22,25.42H160.92l29.29-25.42h0ZM214.01,538.06c-34.29,0-62.18-27.89-62.18-62.18s27.89-62.18,62.18-62.18,62.18,27.89,62.18,62.18-27.89,62.18-62.18,62.18h0ZM377.72,538.06c-34.29,0-62.18-27.89-62.18-62.18s27.89-62.18,62.18-62.18,62.18,27.89,62.18,62.18-27.89,62.18-62.18,62.18ZM541.44,538.06c-34.29,0-62.18-27.89-62.18-62.18s27.89-62.18,62.18-62.18,62.18,27.89,62.18,62.18-27.89,62.18-62.18,62.18ZM618.98,445.64c-12.13-31-42.31-53.02-77.55-53.02-40.75,0-74.73,29.44-81.86,68.16-7.12-38.72-41.11-68.16-81.86-68.16s-74.73,29.44-81.86,68.16c-7.12-38.72-41.11-68.16-81.86-68.16-29.44,0-55.33,15.37-70.14,38.49l-36.2-26.68,28.97-25.14h547.44l-65.1,66.35h.02Z"/>
  </g>
</svg>