<?xml version="1.0" encoding="UTF-8"?>
<svg id="Layer_1" data-name="Layer 1" xmlns="http://www.w3.org/2000/svg" viewBox="0 0 800 800">
  <circle cx="400" cy="400" r="350" style="fill: #e90003; opacity: .6;"/>
  <path d="M400,800c220.91,0,400-179.09,400-400S620.91,0,400,0,0,179.09,0,400s179.09,400,400,400ZM400,50c193.3,0,350,156.7,350,350s-156.7,350-350,350S50,593.3,50,400,206.7,50,400,50Z" style="opacity: .6;"/>
  <path d="M340.12,468.3c0,60.64-49.14,109.78-109.78,109.78s-109.78-49.14-109.78-109.78,49.14-109.78,109.78-109.78,109.78,49.14,109.78,109.78h0ZM569.66,358.52c-60.64,0-109.78,49.14-109.78,109.78s49.14,109.78,109.78,109.78,109.78-49.14,109.78-109.78-49.14-109.78-109.78-109.78h0ZM719.36,468.3c0,82.67-67.03,149.7-149.7,149.7-68.68,0-126.41-46.31-144.03-109.34-6.97,5.87-15.83,9.54-25.63,9.54s-18.66-3.67-25.63-9.54c-17.62,63.03-75.35,109.34-144.03,109.34-82.67,0-149.7-67.03-149.7-149.7,0-23.85,5.73-46.33,15.65-66.33l70.16-168.72c9.34-27.39,29.22-49.82,54.75-62.65,4.07-29.12,28.8-51.6,59.04-51.6,33.07,0,59.88,26.81,59.88,59.88,0,1.64-.34,3.17-.48,4.77,24.65,20.14,40.4,50.74,40.4,85.05v15.51c5.89-3.41,12.65-5.53,19.96-5.53s14.07,2.12,19.96,5.53v-15.51c0-34.77,16.21-65.71,41.44-85.83-.16-1.32-.4-2.63-.4-3.99,0-33.07,26.81-59.88,59.88-59.88,30.4,0,55.25,22.73,59.1,52.1,24.99,12.91,44.37,35.17,53.59,62.16l70.16,168.72c9.9,20,15.63,42.47,15.63,66.33h0ZM360.08,468.3c0-71.66-58.08-129.74-129.74-129.74s-129.74,58.08-129.74,129.74,58.08,129.74,129.74,129.74,129.74-58.08,129.74-129.74ZM419.96,478.28c0-11.02-8.94-19.96-19.96-19.96s-19.96,8.94-19.96,19.96,8.94,19.96,19.96,19.96,19.96-8.94,19.96-19.96ZM699.4,468.3c0-71.66-58.08-129.74-129.74-129.74s-129.74,58.08-129.74,129.74,58.08,129.74,129.74,129.74,129.74-58.08,129.74-129.74Z" style="opacity: .6;"/>
</svg>