<?xml version="1.0" encoding="UTF-8"?>
<svg id="Layer_1" data-name="Layer 1" xmlns="http://www.w3.org/2000/svg" viewBox="0 0 800 800">
  <circle cx="400" cy="400" r="350" style="fill: #f6000b; opacity: .35;"/>
  <path d="M400,800c220.91,0,400-179.09,400-400S620.91,0,400,0,0,179.09,0,400s179.09,400,400,400ZM400,50c193.3,0,350,156.7,350,350s-156.7,350-350,350S50,593.3,50,400,206.7,50,400,50Z" style="opacity: .35;"/>
  <g style="opacity: .35;">
    <path d="M713.7,397.53l-22.57-119.74c-2.37-13.71-15.36-28.24-29.88-32.36l-141.59-36.37c-3.3-.83-6.49-.83-10.61-.83-11.34.83-23.49,5.67-30.81,14.53l-79.24,92.23c-.83.83-1.54,2.37-2.37,3.19l18.65,38.85c6.49-5.67,15.45-8.04,24.32-6.49,13.8,4.13,22.77,18.65,18.65,32.36-3.19,11.44-12.78,18.65-23.4,19.47,1.54,6.49,2.37,13.71,2.37,20.2v15.36l199.81,53.38-4.13,12.99-3.19,12.16c-.83,4.02,1.54,8.86,5.67,9.69l40.39,10.61c4.02.83,8.86-1.54,9.69-5.67l3.19-12.16,24.32-91.41c2.57-9.58,3.3-17.82.72-29.99h0ZM439.69,321.58l55.03-63.79c6.49-7.32,12.16-11.34,18.65-12.16,4.02,0,8.04,0,13.71,1.54l112.42,30.81c14.53,4.13,20.19,9.07,23.4,25.14l15.36,82.44-238.56-63.99h0ZM681.55,443.79c-4.13,13.81-18.65,22.77-32.36,18.65-13.71-4.13-21.95-18.65-17.82-32.36,2.37-11.44,11.23-18.65,21.84-19.47h4.84c1.65,0,3.3,0,4.84.83,13.8,3.91,22.57,18.44,18.65,32.36h0Z"/>
    <path d="M366.23,285.21c-6.49-12.78-22.77-23.4-37.31-23.4h-148.8c-14.53,0-30.71,10.41-36.37,23.4l-52.56,109.95c-4.95,10.41-6.49,18.44-6.49,29.06v107.58c0,4.84,3.19,8.04,8.04,8.04h42.25c4.84,0,8.04-3.91,8.04-8.04v-26.69h224.13v26.69c0,4.84,3.19,8.04,8.04,8.04h42.04c4.84,0,8.04-3.91,8.04-8.04v-107.58c0-10.41-1.65-17.73-6.49-29.06l-52.56-109.95h0ZM168.05,314.47c5.56-12.16,11.23-16.28,22.57-17.82h122.11c15.36,0,21.75,3.3,29.06,17.82l35.55,75.94h-245.77l36.48-75.94h0ZM138.89,472.03c-14.53,0-25.86-12.16-25.86-26.69s11.34-25.86,25.86-25.86,26.69,11.34,26.69,25.86-12.16,26.69-26.69,26.69ZM370.14,472.03c-14.53,0-25.86-12.16-25.86-26.69s11.34-25.86,25.86-25.86,26.69,11.34,26.69,25.86-12.16,26.79-26.69,26.69Z"/>
  </g>
</svg>